# MagicaVoxel @ Ephtracy

# group
o 

# material
mtllib Red_Ant.mtl
usemtl palette

# normals
vn -1 0 0
vn 1 0 0
vn 0 0 1
vn 0 0 -1
vn 0 -1 0
vn 0 1 0

# texcoords
vt 0.0644531 0.5
vt 0.0957031 0.5
vt 0.177734 0.5
vt 0.916016 0.5

# verts
v -0.2 1.2 -1.49012e-08
v -0.2 1.2 -0.3
v -0.2 1.5 -1.49012e-08
v -0.2 1.5 -0.1
v -0.2 1.5 -0.2
v -0.2 1.5 -0.3
v -0.2 1.6 -0.1
v -0.2 1.6 -0.2
v -0.1 0 -1.49012e-08
v -0.1 0 -0.1
v -0.1 0 -0.2
v -0.1 0 -0.3
v -0.1 0.1 -1.49012e-08
v -0.1 0.1 -0.1
v -0.1 0.1 -0.2
v -0.1 0.1 -0.3
v -0.1 0.5 -0.1
v -0.1 0.5 -0.2
v -0.1 0.6 0.1
v -0.1 0.6 -1.49012e-08
v -0.1 0.6 -0.3
v -0.1 0.6 -0.4
v -0.1 0.7 0.1
v -0.1 0.7 -1.49012e-08
v -0.1 0.7 -0.3
v -0.1 0.7 -0.4
v -0.1 1 0.1
v -0.1 1 -1.49012e-08
v -0.1 1 -0.3
v -0.1 1 -0.4
v -0.1 1.1 0.1
v -0.1 1.1 -1.49012e-08
v -0.1 1.1 -0.3
v -0.1 1.1 -0.4
v -0.1 1.2 -1.49012e-08
v -0.1 1.2 -0.3
v 0 0 -1.49012e-08
v 0 0 -0.1
v 0 0 -0.2
v 0 0 -0.3
v 0 0.1 -1.49012e-08
v 0 0.1 -0.1
v 0 0.1 -0.2
v 0 0.1 -0.3
v 0 0.5 -0.1
v 0 0.5 -0.2
v 0 0.6 0.1
v 0 0.6 -1.49012e-08
v 0 0.6 -0.3
v 0 0.6 -0.4
v 0 0.7 0.1
v 0 0.7 -1.49012e-08
v 0 0.7 -0.3
v 0 0.7 -0.4
v 0 1 0.1
v 0 1 -1.49012e-08
v 0 1 -0.3
v 0 1 -0.4
v 0 1.1 0.1
v 0 1.1 -1.49012e-08
v 0 1.1 -0.3
v 0 1.1 -0.4
v 0 1.2 -1.49012e-08
v 0 1.2 -0.3
v 0.1 1.2 -1.49012e-08
v 0.1 1.2 -0.3
v 0.1 1.3 -1.49012e-08
v 0.1 1.3 -0.1
v 0.1 1.3 -0.2
v 0.1 1.3 -0.3
v 0.1 1.4 -1.49012e-08
v 0.1 1.4 -0.1
v 0.1 1.4 -0.2
v 0.1 1.4 -0.3
v 0.1 1.5 -1.49012e-08
v 0.1 1.5 -0.1
v 0.1 1.5 -0.2
v 0.1 1.5 -0.3
v 0.1 1.6 -0.1
v 0.1 1.6 -0.2
v -0.1 0.6 0.1
v -0.1 0.7 0.1
v -0.1 1 0.1
v -0.1 1.1 0.1
v 0 0.6 0.1
v 0 0.7 0.1
v 0 1 0.1
v 0 1.1 0.1
v -0.2 1.2 -1.49012e-08
v -0.2 1.5 -1.49012e-08
v -0.1 0 -1.49012e-08
v -0.1 0.1 -1.49012e-08
v -0.1 0.6 -1.49012e-08
v -0.1 1.1 -1.49012e-08
v -0.1 1.2 -1.49012e-08
v 0 0 -1.49012e-08
v 0 0.1 -1.49012e-08
v 0 0.6 -1.49012e-08
v 0 1.1 -1.49012e-08
v 0 1.2 -1.49012e-08
v 0 1.3 -1.49012e-08
v 0 1.4 -1.49012e-08
v 0.1 1.2 -1.49012e-08
v 0.1 1.3 -1.49012e-08
v 0.1 1.4 -1.49012e-08
v 0.1 1.5 -1.49012e-08
v -0.2 1.5 -0.1
v -0.2 1.6 -0.1
v 0.1 1.5 -0.1
v 0.1 1.6 -0.1
v -0.1 0 -0.2
v -0.1 0.1 -0.2
v -0.1 0.5 -0.2
v 0 0 -0.2
v 0 0.1 -0.2
v 0 0.5 -0.2
v -0.1 0 -0.1
v -0.1 0.1 -0.1
v -0.1 0.5 -0.1
v 0 0 -0.1
v 0 0.1 -0.1
v 0 0.5 -0.1
v -0.2 1.5 -0.2
v -0.2 1.6 -0.2
v 0.1 1.5 -0.2
v 0.1 1.6 -0.2
v -0.2 1.2 -0.3
v -0.2 1.5 -0.3
v -0.1 0 -0.3
v -0.1 0.1 -0.3
v -0.1 0.6 -0.3
v -0.1 1.1 -0.3
v -0.1 1.2 -0.3
v 0 0 -0.3
v 0 0.1 -0.3
v 0 0.6 -0.3
v 0 1.1 -0.3
v 0 1.2 -0.3
v 0 1.3 -0.3
v 0 1.4 -0.3
v 0.1 1.2 -0.3
v 0.1 1.3 -0.3
v 0.1 1.4 -0.3
v 0.1 1.5 -0.3
v -0.1 0.6 -0.4
v -0.1 0.7 -0.4
v -0.1 1 -0.4
v -0.1 1.1 -0.4
v 0 0.6 -0.4
v 0 0.7 -0.4
v 0 1 -0.4
v 0 1.1 -0.4
v -0.1 0 -1.49012e-08
v 0 0 -1.49012e-08
v -0.1 0 -0.1
v 0 0 -0.1
v -0.1 0 -0.2
v 0 0 -0.2
v -0.1 0 -0.3
v 0 0 -0.3
v -0.1 0.5 -0.1
v 0 0.5 -0.1
v -0.1 0.5 -0.2
v 0 0.5 -0.2
v -0.1 0.6 0.1
v 0 0.6 0.1
v -0.1 0.6 -1.49012e-08
v 0 0.6 -1.49012e-08
v -0.1 0.6 -0.3
v 0 0.6 -0.3
v -0.1 0.6 -0.4
v 0 0.6 -0.4
v -0.2 1.2 -1.49012e-08
v -0.1 1.2 -1.49012e-08
v 0 1.2 -1.49012e-08
v 0.1 1.2 -1.49012e-08
v -0.2 1.2 -0.3
v -0.1 1.2 -0.3
v 0 1.2 -0.3
v 0.1 1.2 -0.3
v -0.1 1.1 0.1
v 0 1.1 0.1
v -0.1 1.1 -1.49012e-08
v 0 1.1 -1.49012e-08
v -0.1 1.1 -0.3
v 0 1.1 -0.3
v -0.1 1.1 -0.4
v 0 1.1 -0.4
v -0.2 1.5 -1.49012e-08
v 0.1 1.5 -1.49012e-08
v -0.2 1.5 -0.1
v 0.1 1.5 -0.1
v -0.2 1.5 -0.2
v 0.1 1.5 -0.2
v -0.2 1.5 -0.3
v 0.1 1.5 -0.3
v -0.2 1.6 -0.1
v 0.1 1.6 -0.1
v -0.2 1.6 -0.2
v 0.1 1.6 -0.2

# faces
f 3/1/1 2/1/1 1/1/1
f 4/1/1 2/1/1 3/1/1
f 5/1/1 2/1/1 4/1/1
f 6/1/1 2/1/1 5/1/1
f 7/1/1 5/1/1 4/1/1
f 8/1/1 5/1/1 7/1/1
f 13/3/1 10/3/1 9/3/1
f 14/3/1 10/3/1 13/3/1
f 15/3/1 12/3/1 11/3/1
f 16/3/1 12/3/1 15/3/1
f 17/1/1 14/1/1 13/1/1
f 18/1/1 16/1/1 15/1/1
f 20/1/1 17/1/1 13/1/1
f 20/1/1 18/1/1 17/1/1
f 21/1/1 16/1/1 18/1/1
f 21/1/1 18/1/1 20/1/1
f 23/3/1 20/3/1 19/3/1
f 24/1/1 21/1/1 20/1/1
f 24/3/1 20/3/1 23/3/1
f 25/3/1 22/3/1 21/3/1
f 25/1/1 21/1/1 24/1/1
f 26/3/1 22/3/1 25/3/1
f 27/2/1 24/2/1 23/2/1
f 28/1/1 25/1/1 24/1/1
f 28/2/1 24/2/1 27/2/1
f 29/2/1 26/2/1 25/2/1
f 29/1/1 25/1/1 28/1/1
f 30/2/1 26/2/1 29/2/1
f 31/1/1 28/1/1 27/1/1
f 31/1/1 29/1/1 28/1/1
f 31/1/1 30/1/1 29/1/1
f 32/1/1 30/1/1 31/1/1
f 33/1/1 30/1/1 32/1/1
f 34/1/1 30/1/1 33/1/1
f 35/1/1 33/1/1 32/1/1
f 36/1/1 33/1/1 35/1/1
f 37/3/2 38/3/2 41/3/2
f 41/3/2 38/3/2 42/3/2
f 39/3/2 40/3/2 43/3/2
f 43/3/2 40/3/2 44/3/2
f 41/1/2 42/1/2 45/1/2
f 43/1/2 44/1/2 46/1/2
f 41/1/2 45/1/2 48/1/2
f 45/1/2 46/1/2 48/1/2
f 46/1/2 44/1/2 49/1/2
f 48/1/2 46/1/2 49/1/2
f 47/3/2 48/3/2 51/3/2
f 48/1/2 49/1/2 52/1/2
f 51/3/2 48/3/2 52/3/2
f 49/3/2 50/3/2 53/3/2
f 52/1/2 49/1/2 53/1/2
f 53/3/2 50/3/2 54/3/2
f 51/2/2 52/2/2 55/2/2
f 52/1/2 53/1/2 56/1/2
f 55/2/2 52/2/2 56/2/2
f 53/2/2 54/2/2 57/2/2
f 56/1/2 53/1/2 57/1/2
f 57/2/2 54/2/2 58/2/2
f 55/1/2 56/1/2 59/1/2
f 56/1/2 57/1/2 59/1/2
f 57/1/2 58/1/2 59/1/2
f 59/1/2 58/1/2 60/1/2
f 60/1/2 58/1/2 61/1/2
f 61/1/2 58/1/2 62/1/2
f 60/1/2 61/1/2 63/1/2
f 63/1/2 61/1/2 64/1/2
f 65/1/2 66/1/2 67/1/2
f 67/1/2 66/1/2 68/1/2
f 68/1/2 66/1/2 69/1/2
f 69/1/2 66/1/2 70/1/2
f 67/4/2 68/4/2 71/4/2
f 68/3/2 69/3/2 72/3/2
f 71/4/2 68/4/2 72/4/2
f 69/4/2 70/4/2 73/4/2
f 72/3/2 69/3/2 73/3/2
f 73/4/2 70/4/2 74/4/2
f 71/1/2 72/1/2 75/1/2
f 72/1/2 73/1/2 75/1/2
f 73/1/2 74/1/2 75/1/2
f 75/1/2 74/1/2 76/1/2
f 76/1/2 74/1/2 77/1/2
f 77/1/2 74/1/2 78/1/2
f 76/1/2 77/1/2 79/1/2
f 79/1/2 77/1/2 80/1/2
f 85/3/3 82/3/3 81/3/3
f 86/2/3 83/2/3 82/2/3
f 86/3/3 82/3/3 85/3/3
f 87/1/3 84/1/3 83/1/3
f 87/2/3 83/2/3 86/2/3
f 88/1/3 84/1/3 87/1/3
f 95/1/3 90/1/3 89/1/3
f 96/3/3 92/3/3 91/3/3
f 97/1/3 93/1/3 92/1/3
f 97/3/3 92/3/3 96/3/3
f 98/1/3 93/1/3 97/1/3
f 99/1/3 95/1/3 94/1/3
f 100/1/3 90/1/3 95/1/3
f 100/1/3 95/1/3 99/1/3
f 101/1/3 90/1/3 100/1/3
f 102/1/3 90/1/3 101/1/3
f 103/1/3 101/1/3 100/1/3
f 104/4/3 102/4/3 101/4/3
f 104/1/3 101/1/3 103/1/3
f 105/1/3 90/1/3 102/1/3
f 105/4/3 102/4/3 104/4/3
f 106/1/3 90/1/3 105/1/3
f 109/1/3 108/1/3 107/1/3
f 110/1/3 108/1/3 109/1/3
f 114/3/3 112/3/3 111/3/3
f 115/1/3 113/1/3 112/1/3
f 115/3/3 112/3/3 114/3/3
f 116/1/3 113/1/3 115/1/3
f 117/3/4 118/3/4 120/3/4
f 118/1/4 119/1/4 121/1/4
f 120/3/4 118/3/4 121/3/4
f 121/1/4 119/1/4 122/1/4
f 123/1/4 124/1/4 125/1/4
f 125/1/4 124/1/4 126/1/4
f 127/1/4 128/1/4 133/1/4
f 129/3/4 130/3/4 134/3/4
f 130/1/4 131/1/4 135/1/4
f 134/3/4 130/3/4 135/3/4
f 135/1/4 131/1/4 136/1/4
f 132/1/4 133/1/4 137/1/4
f 133/1/4 128/1/4 138/1/4
f 137/1/4 133/1/4 138/1/4
f 138/1/4 128/1/4 139/1/4
f 139/1/4 128/1/4 140/1/4
f 138/1/4 139/1/4 141/1/4
f 139/4/4 140/4/4 142/4/4
f 141/1/4 139/1/4 142/1/4
f 140/1/4 128/1/4 143/1/4
f 142/4/4 140/4/4 143/4/4
f 143/1/4 128/1/4 144/1/4
f 145/3/4 146/3/4 149/3/4
f 146/2/4 147/2/4 150/2/4
f 149/3/4 146/3/4 150/3/4
f 147/1/4 148/1/4 151/1/4
f 150/2/4 147/2/4 151/2/4
f 151/1/4 148/1/4 152/1/4
f 155/3/5 154/3/5 153/3/5
f 156/3/5 154/3/5 155/3/5
f 159/3/5 158/3/5 157/3/5
f 160/3/5 158/3/5 159/3/5
f 163/1/5 162/1/5 161/1/5
f 164/1/5 162/1/5 163/1/5
f 167/3/5 166/3/5 165/3/5
f 168/3/5 166/3/5 167/3/5
f 171/3/5 170/3/5 169/3/5
f 172/3/5 170/3/5 171/3/5
f 177/1/5 174/1/5 173/1/5
f 178/1/5 174/1/5 177/1/5
f 179/1/5 176/1/5 175/1/5
f 180/1/5 176/1/5 179/1/5
f 181/1/6 182/1/6 183/1/6
f 183/1/6 182/1/6 184/1/6
f 185/1/6 186/1/6 187/1/6
f 187/1/6 186/1/6 188/1/6
f 189/1/6 190/1/6 191/1/6
f 191/1/6 190/1/6 192/1/6
f 193/1/6 194/1/6 195/1/6
f 195/1/6 194/1/6 196/1/6
f 197/1/6 198/1/6 199/1/6
f 199/1/6 198/1/6 200/1/6
